<svg width="52" height="52" viewBox="0 0 52 52" fill="none" xmlns="http://www.w3.org/2000/svg">
<path d="M19.4997 47.6666C18.925 47.6666 18.3739 47.4383 17.9676 47.032C17.5613 46.6257 17.333 46.0746 17.333 45.4999V38.9999H8.66634C7.51707 38.9999 6.41487 38.5434 5.60221 37.7307C4.78955 36.9181 4.33301 35.8159 4.33301 34.6666V8.66658C4.33301 6.26159 6.28301 4.33325 8.66634 4.33325H43.333C44.4823 4.33325 45.5845 4.7898 46.3971 5.60246C47.2098 6.41511 47.6663 7.51731 47.6663 8.66658V34.6666C47.6663 35.8159 47.2098 36.9181 46.3971 37.7307C45.5845 38.5434 44.4823 38.9999 43.333 38.9999H30.1163L22.0997 47.0382C21.6663 47.4499 21.1247 47.6666 20.583 47.6666H19.4997ZM21.6663 34.6666V41.3399L28.3397 34.6666H43.333V8.66658H8.66634V34.6666H21.6663Z" fill="black"/>
</svg>
