<svg width="58" height="58" viewBox="0 0 58 58" fill="none" xmlns="http://www.w3.org/2000/svg">
<path d="M29.2413 44.8292L28.9997 45.0708L28.7338 44.8292C17.2547 34.4133 9.66634 27.5258 9.66634 20.5417C9.66634 15.7083 13.2913 12.0833 18.1247 12.0833C21.8463 12.0833 25.4713 14.5 26.7522 17.7867H31.2472C32.528 14.5 36.153 12.0833 39.8747 12.0833C44.708 12.0833 48.333 15.7083 48.333 20.5417C48.333 27.5258 40.7447 34.4133 29.2413 44.8292ZM39.8747 7.25C35.6697 7.25 31.6338 9.2075 28.9997 12.2767C26.3655 9.2075 22.3297 7.25 18.1247 7.25C10.6813 7.25 4.83301 13.0742 4.83301 20.5417C4.83301 29.6525 13.0497 37.12 25.4955 48.4058L28.9997 51.5958L32.5038 48.4058C44.9497 37.12 53.1663 29.6525 53.1663 20.5417C53.1663 13.0742 47.318 7.25 39.8747 7.25Z" fill="black"/>
</svg>
