<svg width="397" height="215" viewBox="0 0 397 215" fill="none" xmlns="http://www.w3.org/2000/svg">
<path d="M122.934 142.494H88.0325V80.5635H36.4988V142.494H1.5977V1.92362H36.4988V53.3747H88.0325V1.92362H122.934V142.494ZM153.324 142.494V0H257.562V29.3881H188.13V55.6827H250.674V82.944H188.13V113.105H257.562V142.494H153.324ZM279.84 142.494V0H314.647V52.9759H361.369V0H396.177V142.494H361.369V81.2039H314.647V142.494H279.84ZM0 214.997V181.6H2.48671V196.191H20.2862V181.6H22.7729V214.997H20.2862V198.548H2.48671V214.997H0ZM30.8879 214.997V181.6H51.3486V184.002H33.3746V196.191H49.1237V198.548H33.3746V212.595H51.3486V214.997H30.8879ZM64.3595 214.997V184.002H54.1945V181.6H76.9675V184.002H66.8026V214.997H64.3595ZM80.235 214.997V212.595H84.8594V184.002H80.235V181.6H91.9268V184.002H87.3461V212.595H91.9268V214.997H80.235ZM102.291 214.997L98.0152 210.511V186.086L102.291 181.6H116.164L120.614 186.268L119.087 187.944L115.248 183.911H103.294L100.458 186.902V209.695L103.294 212.686H115.509L119.436 208.562L121.006 210.194L116.426 214.997H102.291ZM137.27 214.997V181.6H157.73V184.002H139.756V196.191H155.505V198.548H139.756V212.595H157.73V214.997H137.27ZM172.093 214.997L160.794 181.6H163.324L173.664 212.55H174.624L184.963 181.6H187.537L176.194 214.997H172.093ZM192.314 214.997V181.6H212.775V184.002H194.801V196.191H210.55V198.548H194.801V212.595H212.775V214.997H192.314ZM219.154 214.997V181.6H223.037L238.394 210.964H238.961V181.6H241.448V214.997H237.914L222.557 185.633H221.641V214.997H219.154ZM256.205 214.997V184.002H246.04V181.6H268.813V184.002H258.648V214.997H256.205ZM272.54 214.997V212.595H288.246L291.081 209.605V201.901L288.246 198.91H275.594L271.318 194.469V186.086L275.594 181.6H291.954V184.002H276.641L273.805 186.993V193.609L276.641 196.599H289.293L293.568 201.085V210.511L289.293 214.997H272.54ZM311.094 214.997V181.6H313.581V196.191H331.38V181.6H333.867V214.997H331.38V198.548H313.581V214.997H311.094ZM345.777 214.997L341.502 210.511V181.6H343.945V209.695L346.78 212.686H359.301L362.137 209.695V181.6H364.624V210.511L360.348 214.997H345.777ZM372.273 214.997V181.6H388.284L392.559 186.086V193.88L390.552 197.052L394.479 201.312V210.511L390.203 214.997H372.273ZM374.76 196.191H388.24L390.116 193.246V186.902L387.28 183.911H374.76V196.191ZM374.76 212.686H389.156L391.992 209.695V201.946L388.851 198.548H374.76V212.686Z" fill="white"/>
</svg>
