<svg width="390" height="389" viewBox="0 0 390 389" fill="none" xmlns="http://www.w3.org/2000/svg">
<path d="M195 105.354C205.774 105.354 216.108 109.623 223.726 117.222C231.345 124.821 235.625 135.128 235.625 145.874C235.625 151.196 234.574 156.465 232.533 161.381C230.491 166.297 227.499 170.764 223.726 174.527C219.954 178.29 215.475 181.274 210.547 183.311C205.618 185.347 200.335 186.395 195 186.395C184.226 186.395 173.892 182.126 166.274 174.527C158.655 166.928 154.375 156.621 154.375 145.874C154.375 135.128 158.655 124.821 166.274 117.222C173.892 109.623 184.226 105.354 195 105.354ZM195 32.416C225.168 32.416 254.101 44.3696 275.433 65.6472C296.766 86.9248 308.75 115.783 308.75 145.874C308.75 230.968 195 356.583 195 356.583C195 356.583 81.25 230.968 81.25 145.874C81.25 115.783 93.2343 86.9248 114.567 65.6472C135.899 44.3696 164.832 32.416 195 32.416ZM195 64.8327C173.451 64.8327 152.785 73.371 137.548 88.5692C122.31 103.768 113.75 124.381 113.75 145.874C113.75 162.083 113.75 194.499 195 303.257C276.25 194.499 276.25 162.083 276.25 145.874C276.25 124.381 267.69 103.768 252.452 88.5692C237.215 73.371 216.549 64.8327 195 64.8327Z" fill="black"/>
</svg>
