<svg width="422" height="422" viewBox="0 0 422 422" fill="none" xmlns="http://www.w3.org/2000/svg">
<path d="M369.25 177.943H250.035L298.213 128.358C250.211 80.8833 172.493 79.125 124.49 126.6C76.4876 174.251 76.4876 251.09 124.49 298.917C172.493 346.392 250.211 346.392 298.213 298.917C322.127 275.179 334.083 247.573 334.083 212.758H369.25C369.25 247.573 353.777 292.762 322.83 323.357C261.113 384.548 160.888 384.548 99.1701 323.357C37.6284 262.343 37.1009 163.173 98.8184 102.159C160.536 41.145 259.53 41.145 321.248 102.159L369.25 52.75V177.943ZM219.792 140.667V215.396L281.333 251.969L268.673 273.245L193.417 228.583V140.667H219.792Z" fill="black"/>
</svg>
