<svg width="34" height="35" viewBox="0 0 34 35" fill="none" xmlns="http://www.w3.org/2000/svg">
<path d="M26.4961 26.0133C25.0285 23.4633 22.2727 21.75 19.125 21.75H14.875C11.7273 21.75 8.97148 23.4633 7.50391 26.0133C9.84141 28.6164 13.2281 30.25 17 30.25C20.7719 30.25 24.1586 28.6098 26.4961 26.0133ZM34 17.5C34 26.8898 26.3898 34.5 17 34.5C7.61016 34.5 0 26.8898 0 17.5C0 8.11016 7.61016 0.5 17 0.5C26.3898 0.5 34 8.11016 34 17.5ZM17 18.5625C19.643 18.5625 21.7812 16.4242 21.7812 13.7812C21.7812 11.1383 19.643 9 17 9C14.357 9 12.2188 11.1383 12.2188 13.7812C12.2188 16.4242 14.357 18.5625 17 18.5625Z" fill="#01180E"/>
</svg>
